<?xml version="1.0" encoding="utf-8"?>
<svg viewBox="67.658 82.556 189.138 27.121" width="189.138" height="27.121" xmlns="http://www.w3.org/2000/svg">
  <defs>
    <linearGradient id="gradient-1" x1="72.195%" x2="17.503%" y1="0%" y2="100%">
      <stop offset="0" stop-color="#33D35E"/>
      <stop offset="1" stop-color="#2AB6D9"/>
    </linearGradient>
  </defs>
  <g fill="none" fill-rule="evenodd" transform="matrix(1.146109, 0, 0, 1.253699, 69.370766, 82.983505)" style="">
    <g fill="url(#gradient-1)">
      <path d="M 10.802 0 L 0 19.704 L 5.986 19.704 L 11.725 9.236 L 16.789 0 L 10.802 0 Z"/>
      <path opacity=".5" d="M18.171 0L7.368 19.704h5.986L24.157 0z"/>
      <path opacity=".15" d="M25.539 0L14.737 19.704h5.986L31.525 0z"/>
      <path d="M 143.03600036621094 161.77899365234376 Q 141.46300036621093 161.77899365234376 140.56650036621093 161.38849365234375 Q 139.67000036621093 160.99799365234375 139.29600036621093 160.54699365234376 L 140.11000036621093 158.45699365234375 Q 141.51800036621094 159.62299365234375 143.10200036621094 159.62299365234375 Q 143.81700036621095 159.62299365234375 144.16350036621094 159.33149365234374 Q 144.51000036621093 159.03999365234375 144.51000036621093 158.61099365234375 Q 144.51000036621093 158.14899365234376 143.91050036621093 157.75849365234376 Q 143.31100036621095 157.36799365234376 142.13400036621093 156.85099365234376 Q 141.37500036621094 156.52099365234375 140.81400036621093 156.15799365234375 Q 140.25300036621093 155.79499365234375 139.84050036621093 155.17349365234375 Q 139.42800036621094 154.55199365234375 139.42800036621094 153.66099365234376 Q 139.42800036621094 152.67099365234375 139.91750036621093 151.93399365234376 Q 140.40700036621095 151.19699365234376 141.34200036621093 150.80099365234375 Q 142.27700036621093 150.40499365234376 143.58600036621092 150.40499365234376 Q 144.36700036621093 150.40499365234376 145.05450036621093 150.57549365234374 Q 145.74200036621093 150.74599365234374 146.22600036621094 150.99349365234374 Q 146.71000036621095 151.24099365234375 146.93000036621095 151.46099365234375 L 146.18200036621093 153.44099365234376 Q 145.67600036621093 153.05599365234374 145.02150036621094 152.78649365234375 Q 144.36700036621093 152.51699365234376 143.67400036621095 152.51699365234376 Q 142.84900036621093 152.51699365234376 142.51350036621093 152.73149365234374 Q 142.17800036621094 152.94599365234376 142.17800036621094 153.44099365234376 Q 142.17800036621094 153.93599365234374 142.66750036621093 154.26599365234375 Q 143.15700036621092 154.59599365234374 144.18000036621095 155.00299365234375 Q 145.65400036621094 155.58599365234375 146.44600036621094 156.38349365234376 Q 147.23800036621094 157.18099365234374 147.23800036621094 158.32499365234375 Q 147.23800036621094 159.28199365234374 146.80350036621093 160.05749365234374 Q 146.36900036621094 160.83299365234376 145.42850036621093 161.30599365234374 Q 144.48800036621094 161.77899365234376 143.03600036621094 161.77899365234376 Z M 161.84366418457032 150.36099365234375 Q 163.4606641845703 150.36099365234375 164.2911641845703 151.40049365234376 Q 165.1216641845703 152.43999365234376 165.1216641845703 154.34299365234375 L 165.1216641845703 161.58099365234375 L 162.32766418457032 161.58099365234375 L 162.32766418457032 154.62899365234375 Q 162.32766418457032 153.67199365234376 161.9591641845703 153.12749365234376 Q 161.5906641845703 152.58299365234376 160.83166418457031 152.58299365234376 Q 160.31466418457032 152.58299365234376 159.84716418457032 152.84699365234374 Q 159.37966418457032 153.11099365234375 159.09366418457032 153.57849365234375 Q 158.8076641845703 154.04599365234375 158.8076641845703 154.62899365234375 L 158.8076641845703 161.58099365234375 L 155.9916641845703 161.58099365234375 L 155.9916641845703 154.62899365234375 Q 155.9916641845703 153.69399365234375 155.57916418457032 153.11649365234376 Q 155.16666418457032 152.53899365234375 154.4076641845703 152.53899365234375 Q 153.87966418457032 152.53899365234375 153.43966418457032 152.80849365234374 Q 152.99966418457032 153.07799365234376 152.7356641845703 153.55649365234376 Q 152.4716641845703 154.03499365234376 152.4716641845703 154.62899365234375 L 152.4716641845703 161.58099365234375 L 149.6556641845703 161.58099365234375 L 149.6556641845703 150.62499365234376 L 152.1856641845703 150.62499365234376 L 152.2516641845703 152.07699365234376 Q 153.36266418457032 150.36099365234375 155.4856641845703 150.36099365234375 Q 156.5856641845703 150.36099365234375 157.3281641845703 150.84499365234376 Q 158.07066418457032 151.32899365234374 158.4446641845703 152.25299365234375 Q 159.5666641845703 150.36099365234375 161.84366418457032 150.36099365234375 Z M 170.48350231933594 161.88899365234374 Q 169.50450231933593 161.88899365234374 168.83350231933593 161.44899365234374 Q 168.16250231933594 161.00899365234375 167.82700231933595 160.26099365234376 Q 167.49150231933595 159.51299365234374 167.49150231933595 158.58899365234376 Q 167.49150231933595 157.78599365234376 168.02500231933593 156.98849365234375 Q 168.55850231933593 156.19099365234376 169.92250231933593 155.62999365234376 Q 171.28650231933594 155.06899365234375 173.60750231933594 155.06899365234375 L 173.60750231933594 154.56299365234375 Q 173.60750231933594 153.66099365234376 173.17300231933595 153.16599365234376 Q 172.73850231933594 152.67099365234375 171.64950231933594 152.67099365234375 Q 170.79150231933593 152.67099365234375 169.97200231933593 152.96249365234374 Q 169.15250231933595 153.25399365234375 168.76750231933593 153.68299365234375 L 167.88750231933594 151.57099365234376 Q 168.63550231933593 151.06499365234376 169.74650231933595 150.71299365234376 Q 170.85750231933594 150.36099365234375 172.11150231933593 150.36099365234375 Q 173.68450231933593 150.36099365234375 174.60300231933593 150.84499365234376 Q 175.52150231933592 151.32899365234374 175.89550231933595 152.20899365234374 Q 176.26950231933594 153.08899365234376 176.26950231933594 154.38699365234376 L 176.26950231933594 161.58099365234375 L 173.91550231933593 161.58099365234375 L 173.71750231933595 160.01899365234374 Q 173.13450231933592 160.96499365234374 172.33700231933594 161.42699365234375 Q 171.53950231933592 161.88899365234374 170.48350231933594 161.88899365234374 Z M 171.64950231933594 159.77699365234375 Q 172.15550231933594 159.77699365234375 172.71650231933594 159.36999365234374 Q 173.27750231933595 158.96299365234376 173.60750231933594 158.34699365234374 L 173.60750231933594 156.78499365234376 Q 173.45350231933594 156.76299365234374 173.07950231933594 156.76299365234374 Q 171.96850231933593 156.76299365234374 171.09400231933594 157.13149365234375 Q 170.21950231933593 157.49999365234376 170.21950231933593 158.32499365234375 Q 170.21950231933593 159.10599365234376 170.56600231933595 159.44149365234375 Q 170.91250231933594 159.77699365234375 171.64950231933594 159.77699365234375 Z M 179.10721813964844 150.62499365234376 L 181.59321813964843 150.62499365234376 L 181.72521813964843 152.56099365234374 Q 182.07721813964844 151.71399365234376 182.83621813964845 151.10349365234376 Q 183.59521813964844 150.49299365234376 184.98121813964843 150.49299365234376 Q 185.53121813964844 150.49299365234376 185.99321813964843 150.66899365234374 L 185.37721813964845 153.55099365234375 Q 185.19021813964844 153.36399365234377 184.93171813964844 153.28149365234376 Q 184.67321813964844 153.19899365234374 184.29921813964845 153.19899365234374 Q 183.52921813964844 153.19899365234374 182.97371813964844 153.52349365234375 Q 182.41821813964845 153.84799365234375 182.13771813964843 154.27699365234375 Q 181.85721813964844 154.70599365234375 181.85721813964844 154.98099365234376 L 181.85721813964844 161.58099365234375 L 179.10721813964844 161.58099365234375 Z M 191.23394006347655 161.91099365234376 Q 190.01294006347655 161.91099365234376 189.31994006347657 161.49299365234376 Q 188.62694006347655 161.07499365234375 188.34644006347656 160.23349365234375 Q 188.06594006347657 159.39199365234376 188.06594006347657 158.01699365234376 L 188.06594006347657 152.93499365234376 L 186.63594006347657 152.93499365234376 L 186.63594006347657 150.62499365234376 L 188.17594006347656 150.62499365234376 L 188.32994006347656 148.31499365234376 L 190.72794006347655 147.28099365234374 L 190.72794006347655 150.62499365234376 L 193.43394006347657 150.62499365234376 L 193.43394006347657 152.93499365234376 L 190.72794006347655 152.93499365234376 L 190.72794006347655 157.95099365234375 Q 190.72794006347655 158.87499365234376 190.98094006347657 159.25999365234375 Q 191.23394006347655 159.64499365234374 191.73994006347655 159.64499365234374 Q 192.19094006347657 159.64499365234374 192.72444006347655 159.40849365234374 Q 193.25794006347655 159.17199365234376 193.60994006347656 158.87499365234376 L 194.13794006347655 161.09699365234374 Q 193.65394006347657 161.43799365234375 192.74644006347657 161.67449365234376 Q 191.83894006347657 161.91099365234376 191.23394006347655 161.91099365234376 Z M 212.3915910644531 146.24699365234375 L 207.30959106445312 161.61399365234374 L 206.9575910644531 161.61399365234374 L 203.36059106445313 152.81399365234375 L 199.82959106445313 161.59199365234375 L 199.45559106445313 161.59199365234375 L 194.32959106445313 146.24699365234375 L 197.36559106445313 146.24699365234375 L 200.03859106445313 155.14599365234375 L 203.23959106445312 146.24699365234375 L 203.61359106445312 146.24699365234375 L 206.85859106445312 155.11299365234376 L 209.37759106445313 146.24699365234375 Z M 215.23078625488282 161.88899365234374 Q 214.2517862548828 161.88899365234374 213.5807862548828 161.44899365234374 Q 212.90978625488282 161.00899365234375 212.57428625488282 160.26099365234376 Q 212.23878625488283 159.51299365234374 212.23878625488283 158.58899365234376 Q 212.23878625488283 157.78599365234376 212.7722862548828 156.98849365234375 Q 213.3057862548828 156.19099365234376 214.6697862548828 155.62999365234376 Q 216.0337862548828 155.06899365234375 218.3547862548828 155.06899365234375 L 218.3547862548828 154.56299365234375 Q 218.3547862548828 153.66099365234376 217.92028625488283 153.16599365234376 Q 217.4857862548828 152.67099365234375 216.3967862548828 152.67099365234375 Q 215.5387862548828 152.67099365234375 214.7192862548828 152.96249365234374 Q 213.89978625488283 153.25399365234375 213.5147862548828 153.68299365234375 L 212.6347862548828 151.57099365234376 Q 213.3827862548828 151.06499365234376 214.49378625488282 150.71299365234376 Q 215.6047862548828 150.36099365234375 216.8587862548828 150.36099365234375 Q 218.4317862548828 150.36099365234375 219.3502862548828 150.84499365234376 Q 220.2687862548828 151.32899365234374 220.64278625488282 152.20899365234374 Q 221.01678625488282 153.08899365234376 221.01678625488282 154.38699365234376 L 221.01678625488282 161.58099365234375 L 218.6627862548828 161.58099365234375 L 218.46478625488282 160.01899365234374 Q 217.8817862548828 160.96499365234374 217.0842862548828 161.42699365234375 Q 216.2867862548828 161.88899365234374 215.23078625488282 161.88899365234374 Z M 216.3967862548828 159.77699365234375 Q 216.9027862548828 159.77699365234375 217.46378625488282 159.36999365234374 Q 218.02478625488283 158.96299365234376 218.3547862548828 158.34699365234374 L 218.3547862548828 156.78499365234376 Q 218.20078625488281 156.76299365234374 217.82678625488282 156.76299365234374 Q 216.7157862548828 156.76299365234374 215.84128625488282 157.13149365234375 Q 214.9667862548828 157.49999365234376 214.9667862548828 158.32499365234375 Q 214.9667862548828 159.10599365234376 215.31328625488283 159.44149365234375 Q 215.65978625488282 159.77699365234375 216.3967862548828 159.77699365234375 Z M 226.95650207519532 161.77899365234376 Q 225.3835020751953 161.77899365234376 224.4870020751953 161.38849365234375 Q 223.5905020751953 160.99799365234375 223.2165020751953 160.54699365234376 L 224.0305020751953 158.45699365234375 Q 225.43850207519532 159.62299365234375 227.02250207519532 159.62299365234375 Q 227.73750207519532 159.62299365234375 228.08400207519531 159.33149365234374 Q 228.4305020751953 159.03999365234375 228.4305020751953 158.61099365234375 Q 228.4305020751953 158.14899365234376 227.8310020751953 157.75849365234376 Q 227.23150207519532 157.36799365234376 226.0545020751953 156.85099365234376 Q 225.29550207519532 156.52099365234375 224.7345020751953 156.15799365234375 Q 224.1735020751953 155.79499365234375 223.7610020751953 155.17349365234375 Q 223.3485020751953 154.55199365234375 223.3485020751953 153.66099365234376 Q 223.3485020751953 152.67099365234375 223.8380020751953 151.93399365234376 Q 224.32750207519533 151.19699365234376 225.2625020751953 150.80099365234375 Q 226.1975020751953 150.40499365234376 227.5065020751953 150.40499365234376 Q 228.2875020751953 150.40499365234376 228.9750020751953 150.57549365234374 Q 229.6625020751953 150.74599365234374 230.14650207519531 150.99349365234374 Q 230.63050207519532 151.24099365234375 230.85050207519532 151.46099365234375 L 230.1025020751953 153.44099365234376 Q 229.5965020751953 153.05599365234374 228.94200207519532 152.78649365234375 Q 228.2875020751953 152.51699365234376 227.59450207519532 152.51699365234376 Q 226.7695020751953 152.51699365234376 226.4340020751953 152.73149365234374 Q 226.0985020751953 152.94599365234376 226.0985020751953 153.44099365234376 Q 226.0985020751953 153.93599365234374 226.5880020751953 154.26599365234375 Q 227.0775020751953 154.59599365234374 228.10050207519532 155.00299365234375 Q 229.5745020751953 155.58599365234375 230.3665020751953 156.38349365234376 Q 231.15850207519532 157.18099365234374 231.15850207519532 158.32499365234375 Q 231.15850207519532 159.28199365234374 230.7240020751953 160.05749365234374 Q 230.28950207519532 160.83299365234376 229.3490020751953 161.30599365234374 Q 228.40850207519532 161.77899365234376 226.95650207519532 161.77899365234376 Z M 237.18418115234374 161.91099365234376 Q 235.96318115234374 161.91099365234376 235.27018115234375 161.49299365234376 Q 234.57718115234374 161.07499365234375 234.29668115234375 160.23349365234375 Q 234.01618115234376 159.39199365234376 234.01618115234376 158.01699365234376 L 234.01618115234376 152.93499365234376 L 232.58618115234376 152.93499365234376 L 232.58618115234376 150.62499365234376 L 234.12618115234375 150.62499365234376 L 234.28018115234374 148.31499365234376 L 236.67818115234374 147.28099365234374 L 236.67818115234374 150.62499365234376 L 239.38418115234376 150.62499365234376 L 239.38418115234376 152.93499365234376 L 236.67818115234374 152.93499365234376 L 236.67818115234374 157.95099365234375 Q 236.67818115234374 158.87499365234376 236.93118115234375 159.25999365234375 Q 237.18418115234374 159.64499365234374 237.69018115234374 159.64499365234374 Q 238.14118115234376 159.64499365234374 238.67468115234374 159.40849365234374 Q 239.20818115234374 159.17199365234376 239.56018115234374 158.87499365234376 L 240.08818115234374 161.09699365234374 Q 239.60418115234376 161.43799365234375 238.69668115234376 161.67449365234376 Q 237.78918115234376 161.91099365234376 237.18418115234374 161.91099365234376 Z M 246.3574461669922 161.86699365234375 Q 244.58644616699218 161.86699365234375 243.43144616699217 161.11349365234375 Q 242.2764461669922 160.35999365234375 241.7429461669922 159.09499365234376 Q 241.2094461669922 157.82999365234375 241.2094461669922 156.23499365234375 Q 241.2094461669922 154.60699365234376 241.8089461669922 153.27049365234376 Q 242.40844616699218 151.93399365234376 243.56344616699218 151.14749365234374 Q 244.71844616699218 150.36099365234375 246.31344616699218 150.36099365234375 Q 248.68944616699218 150.36099365234375 249.71244616699218 151.73049365234374 Q 250.73544616699218 153.09999365234376 250.73544616699218 155.81699365234374 Q 250.73544616699218 156.34499365234376 250.6914461669922 157.00499365234376 L 244.0914461669922 157.00499365234376 Q 244.1574461669922 158.33599365234375 244.83394616699218 159.05649365234376 Q 245.51044616699218 159.77699365234375 246.81944616699218 159.77699365234375 Q 247.5014461669922 159.77699365234375 248.2824461669922 159.47449365234374 Q 249.06344616699218 159.17199365234376 249.43744616699217 158.74299365234376 L 250.3174461669922 160.83299365234376 Q 248.76644616699218 161.86699365234375 246.3574461669922 161.86699365234375 Z M 247.9414461669922 155.28899365234375 Q 247.9414461669922 153.67199365234376 247.5399461669922 153.06149365234376 Q 247.1384461669922 152.45099365234375 246.37944616699218 152.45099365234375 Q 245.31244616699217 152.45099365234375 244.7239461669922 153.24299365234376 Q 244.13544616699218 154.03499365234376 244.06944616699218 155.28899365234375 Z" transform="matrix(1.1939489841461182, 0, 0, 1, -136.1201629638672, -144.6660614013672)" style="white-space: pre; fill: rgb(255, 255, 255);"/>
    </g>
  </g>
</svg>